<?xml version="1.0" encoding="UTF-8"?>
<!DOCTYPE svg  PUBLIC '-//W3C//DTD SVG 1.1//EN'  'http://www.w3.org/Graphics/SVG/1.1/DTD/svg11.dtd'>
<svg width="89.316mm" height="103.72mm" clip-rule="evenodd" fill-rule="evenodd" image-rendering="optimizeQuality" shape-rendering="geometricPrecision" text-rendering="geometricPrecision" version="1.1" viewBox="0 0 5028 5838" xml:space="preserve" xmlns="http://www.w3.org/2000/svg">
 <defs>
  <style type="text/css">
   <![CDATA[
    .fil0 {fill:#DB111B}
   ]]>
  </style>
 </defs>
  <path class="fil0" d="m5e3 1282c-22 3-61 52-113 92s-117 69-167 93c-51 23-88 41-121 68-34 28-64 67-119 99s-136 57-245 72c-110 15-248 20-372 45-125 26-235 73-324 136s-155 142-229 235-155 200-219 267c-65 68-113 95-171 121-57 26-124 49-176 66s-88 28-83 69c6 40 54 111 119 158 64 47 145 70 261 82 117 12 269 12 421-9 152-22 304-65 396-87 134-32 153-2 255 91 174 159 326 322 326 534 0 282-151 564-393 846-200 257-687 667-974 871-186 144-381 287-575 430-337-248-674-497-970-745-239-199-505-439-710-722-164-227-261-453-261-680 0-246 313-698 613-625 93 22 245 65 397 87 152 21 304 21 420 9s197-35 262-82c64-47 112-118 118-158 6-41-31-52-83-69s-118-40-176-66-106-53-170-121c-65-67-146-174-219-267-42-53-82-101-124-144 80-6 186-10 283-27 112-19 212-55 287-108 76-52 127-120 133-205s-34-186-51-219-12 2-19 49-26 106-67 159c-41 52-103 98-176 128-181 74-151 49-123-63 13-53 24-113 38-167 25-97 59-178 107-244 48-67 111-119 176-149s132-37 183-34 87 16 56-8-128-85-219-97-175 25-247 89c-73 64-134 156-180 264-47 107-78 231-104 311-101 300-478 127-641-30-40-37-59-72-68-109s-8-75 7-133c14-58 42-136 94-180s128-55 234-70c106-14 241-33 326-66 86-33 121-80 137-130s11-104 4-108c-8-3-18 44-47 80-29 35-78 60-151 72s-170 11-230 8-82-9-57-45c26-36 100-103 132-176 32-74 22-155-41-232-64-77-181-150-225-172s-14 7 19 46c33 40 69 89 86 145 17 57 15 122-28 181-43 60-128 114-195 174-66 60-114 127-139 213-24 87-26 194-58 231-33 38-97 5-144-62s-76-169-101-294c-26-125-72-274-65-383 8-108 38-175 94-238 57-63 164-122 154-136s-106 16-176 50c-150 73-192 187-201 338-4 82 4 172 31 267s73 195 66 211c-7 17-66-49-114-132-101-174-179-324-120-527 26-89 104-192 185-274 82-82 191-149 204-169 12-20-73 7-151 37-299 112-447 361-393 656 29 159 128 362 293 553 153 176 362 342 549 469-53-5-103-9-148-16-110-15-190-40-246-72-55-32-85-71-118-99-34-27-70-45-121-68-51-24-115-53-167-93s-91-89-113-92-27 40-28 82c-1 43 1 86 11 137 9 51 25 111 89 157 65 46 178 78 262 126 245 140 128 222 31 365-51 75-113 184-169 331-57 148-107 334-122 560-80 1206 938 1913 1944 2499 32 19 461 303 477 299 40-11 617-413 706-466 938-560 1770-1221 1697-2332-15-226-66-412-122-560-57-147-119-256-170-331-20-30-38-55-55-74-7-13-15-24-22-34-85-120-20-183 109-257 84-48 197-80 261-126 65-46 81-106 90-157s11-94 10-137c-1-42-6-85-27-82z"/>
</svg>
